<svg id="svg" version="1.1" xmlns="http://www.w3.org/2000/svg" xmlns:xlink="http://www.w3.org/1999/xlink" width="400" height="400" viewBox="0, 0, 400,400"><g id="svgg"><path id="path0" d="M189.200 27.224 C 128.055 31.709,72.905 68.466,45.194 123.200 C 39.271 134.900,34.316 149.254,31.455 163.000 C 26.326 187.640,26.441 209.425,31.839 236.000 C 35.749 255.254,47.301 281.991,58.293 297.230 C 81.869 329.915,110.799 351.468,148.000 364.063 C 193.777 379.560,245.704 373.070,288.313 346.524 C 320.241 326.633,341.067 302.564,357.292 266.800 C 373.263 231.599,375.378 184.322,362.714 145.615 C 338.964 73.025,263.816 21.750,189.200 27.224 M214.200 40.031 C 261.983 44.726,307.401 72.626,333.940 113.585 C 343.222 127.910,355.287 155.200,352.338 155.200 C 351.343 155.200,335.866 146.988,324.232 140.288 C 310.570 132.420,285.010 115.876,268.248 104.051 C 264.702 101.550,260.485 98.580,258.877 97.451 C 254.227 94.188,241.775 84.840,237.016 81.040 C 234.618 79.126,232.444 77.434,232.184 77.280 C 231.923 77.126,231.339 76.152,230.885 75.115 C 219.090 48.204,181.525 47.382,168.499 73.750 C 167.243 76.294,166.550 77.159,164.522 78.715 C 150.456 89.509,137.770 98.835,127.800 105.712 C 124.720 107.837,120.850 110.510,119.200 111.654 C 114.524 114.894,100.150 124.448,96.600 126.675 C 83.359 134.984,71.384 142.164,64.800 145.743 C 56.038 150.505,46.183 155.443,46.063 155.132 C 44.775 151.799,55.776 127.690,65.100 113.413 C 82.341 87.011,107.892 65.202,136.000 52.893 C 154.773 44.673,170.669 40.907,192.800 39.437 C 196.166 39.214,209.708 39.589,214.200 40.031 M204.427 69.845 C 218.720 74.085,222.986 90.936,212.376 101.243 C 199.762 113.497,179.290 103.726,180.503 86.029 C 181.268 74.866,193.489 66.599,204.427 69.845 M166.400 92.936 C 166.400 97.635,169.867 105.121,175.013 111.534 L 176.405 113.268 176.302 145.134 L 176.200 177.000 170.400 177.200 C 167.210 177.310,164.375 177.243,164.100 177.051 C 163.705 176.776,163.600 167.904,163.600 134.974 L 163.600 93.245 164.489 92.623 C 165.746 91.742,166.400 91.849,166.400 92.936 M233.971 93.054 C 234.800 94.108,235.332 170.926,234.543 175.700 L 234.295 177.200 228.148 177.200 L 222.000 177.200 222.000 145.078 L 222.000 112.957 223.430 111.578 C 226.776 108.354,230.844 100.521,231.625 95.800 C 232.353 91.395,232.516 91.204,233.971 93.054 M156.643 132.900 C 156.537 151.875,156.439 169.664,156.425 172.432 L 156.400 177.464 149.300 177.859 C 145.395 178.076,142.110 178.182,142.000 178.094 C 141.606 177.779,141.555 109.609,141.948 108.908 C 142.408 108.084,155.574 98.492,156.318 98.438 C 156.740 98.407,156.801 104.809,156.643 132.900 M244.080 99.599 C 245.026 100.258,248.140 102.474,251.000 104.523 L 256.200 108.249 256.200 143.224 L 256.200 178.200 255.200 178.127 C 254.650 178.087,251.365 177.933,247.900 177.785 L 241.600 177.516 241.600 137.958 C 241.600 113.244,241.743 98.400,241.980 98.400 C 242.189 98.400,243.134 98.939,244.080 99.599 M270.500 118.168 L 276.400 122.071 276.400 150.835 C 276.400 178.594,276.374 179.600,275.657 179.600 C 273.085 179.600,264.119 178.648,263.732 178.334 C 263.213 177.914,262.936 114.398,263.451 113.883 C 263.602 113.731,263.923 113.755,264.163 113.936 C 264.403 114.118,267.255 116.022,270.500 118.168 M134.400 146.548 L 134.400 178.697 132.500 178.933 C 131.455 179.063,128.845 179.291,126.700 179.439 L 122.800 179.710 122.800 150.883 L 122.800 122.057 128.300 118.250 C 131.325 116.156,133.935 114.434,134.100 114.422 C 134.265 114.410,134.400 128.867,134.400 146.548 M184.877 118.368 C 185.605 118.791,187.550 119.539,189.200 120.030 C 190.850 120.522,192.332 121.121,192.494 121.362 C 192.656 121.603,192.791 134.148,192.794 149.240 L 192.800 176.680 189.139 176.940 C 187.125 177.083,184.965 177.200,184.339 177.200 L 183.200 177.200 183.200 147.400 C 183.200 131.010,183.280 117.600,183.377 117.600 C 183.475 117.600,184.150 117.946,184.877 118.368 M215.200 147.400 C 215.200 163.544,215.065 176.820,214.900 176.901 C 214.735 176.983,212.620 176.949,210.200 176.825 L 205.800 176.600 205.800 149.161 C 205.800 118.525,205.557 120.814,208.895 120.044 C 210.053 119.778,211.810 119.155,212.800 118.662 C 213.790 118.168,214.735 117.828,214.900 117.906 C 215.065 117.983,215.200 131.256,215.200 147.400 M115.600 154.057 L 115.400 180.190 113.600 180.447 C 112.610 180.588,110.450 180.770,108.800 180.852 L 105.800 181.000 105.714 157.400 L 105.629 133.800 110.504 130.521 C 113.185 128.718,115.474 127.396,115.590 127.583 C 115.705 127.770,115.710 139.683,115.600 154.057 M288.603 130.662 L 293.200 133.723 293.200 157.433 L 293.200 181.142 290.900 180.920 C 289.635 180.798,287.520 180.586,286.200 180.449 L 283.800 180.200 283.697 153.900 C 283.641 139.435,283.687 127.600,283.800 127.600 C 283.913 127.600,286.074 128.978,288.603 130.662 M97.878 160.483 L 97.800 181.767 95.400 182.257 C 94.080 182.527,91.830 182.805,90.400 182.874 L 87.800 183.000 87.709 164.289 L 87.619 145.578 88.509 144.806 C 89.950 143.557,96.898 139.200,97.449 139.200 C 97.853 139.200,97.940 143.538,97.878 160.483 M306.764 142.328 L 311.328 145.400 311.371 164.134 C 311.394 174.438,311.313 182.930,311.191 183.005 C 310.757 183.274,302.191 182.264,301.700 181.886 C 301.311 181.587,301.200 176.800,301.200 160.351 C 301.200 143.682,301.306 139.206,301.700 139.228 C 301.975 139.243,304.254 140.638,306.764 142.328 M79.919 165.233 C 79.985 173.465,79.930 181.119,79.798 182.242 L 79.557 184.284 75.478 184.911 C 73.235 185.256,71.040 185.597,70.600 185.669 C 69.769 185.805,69.097 156.959,69.903 155.758 C 70.360 155.078,78.947 149.998,79.400 150.141 C 79.654 150.221,79.843 155.711,79.919 165.233 M324.234 152.630 C 326.635 154.077,328.788 155.500,329.018 155.794 C 330.076 157.146,329.414 186.427,328.341 185.763 C 328.119 185.626,326.016 185.207,323.668 184.833 L 319.400 184.151 319.296 167.076 C 319.238 157.684,319.343 150.000,319.529 150.000 C 319.715 150.000,321.832 151.184,324.234 152.630 M61.800 177.428 L 61.800 186.989 57.000 187.877 C 54.360 188.366,49.636 189.284,46.502 189.918 C 39.937 191.245,40.398 191.372,40.407 188.233 C 40.437 177.573,40.903 176.735,48.681 173.348 C 52.152 171.837,56.343 169.939,57.996 169.131 C 62.075 167.136,61.800 166.535,61.800 177.428 M340.637 168.974 C 342.157 169.730,345.470 171.260,348.000 172.375 C 355.718 175.775,356.931 176.473,357.246 177.695 C 357.728 179.567,358.567 190.366,358.255 190.679 C 358.092 190.842,354.143 190.211,349.479 189.278 C 344.816 188.345,340.145 187.471,339.100 187.336 L 337.200 187.091 337.200 177.346 C 337.200 171.986,337.352 167.600,337.537 167.600 C 337.722 167.600,339.117 168.218,340.637 168.974 M233.400 189.380 C 244.438 189.540,261.164 190.268,270.600 190.998 C 286.521 192.230,319.792 195.871,321.931 196.614 C 322.224 196.716,325.464 197.263,329.131 197.830 C 336.472 198.965,355.010 202.554,357.160 203.257 L 358.520 203.702 358.267 209.151 C 358.033 214.205,357.376 220.758,357.072 221.061 C 357.001 221.133,354.615 221.385,351.771 221.622 C 348.927 221.859,344.890 222.299,342.800 222.599 C 330.503 224.366,326.933 224.902,322.714 225.619 C 320.137 226.056,317.797 226.499,317.514 226.603 C 317.231 226.707,314.480 227.331,311.400 227.989 C 293.686 231.775,273.126 238.738,256.400 246.616 C 252.770 248.326,249.129 250.147,248.308 250.663 C 247.487 251.178,246.744 251.600,246.657 251.600 C 246.363 251.600,238.220 256.244,235.800 257.792 C 229.093 262.084,227.438 263.216,223.114 266.473 C 217.561 270.657,216.923 271.297,216.327 273.286 C 215.486 276.092,217.266 279.326,219.803 279.605 C 221.725 279.816,222.652 279.331,229.435 274.570 C 257.473 254.886,293.849 241.342,333.000 236.008 C 337.840 235.348,342.970 234.633,344.400 234.418 C 350.268 233.537,354.800 233.423,354.800 234.158 C 354.800 236.034,352.497 244.778,349.995 252.400 C 348.547 256.812,346.026 262.216,345.355 262.347 C 332.563 264.832,302.962 274.607,287.400 281.485 C 265.353 291.229,239.749 306.936,237.145 312.313 C 234.627 317.514,239.851 321.471,244.667 318.012 C 248.622 315.172,257.826 309.123,261.354 307.046 C 266.663 303.920,270.023 302.000,270.186 302.000 C 270.264 302.000,271.619 301.268,273.197 300.374 C 287.393 292.330,323.762 278.918,336.700 276.956 C 339.274 276.565,339.171 276.865,333.939 285.053 C 313.872 316.453,283.511 339.945,246.800 352.475 C 185.054 373.552,113.420 350.195,71.754 295.400 C 64.878 286.357,58.853 275.717,61.100 276.585 C 61.485 276.733,62.942 277.120,64.338 277.445 C 77.473 280.499,102.941 289.133,109.429 292.732 C 109.853 292.967,112.810 294.362,116.000 295.832 C 122.092 298.640,124.187 299.727,131.449 303.849 C 146.701 312.506,160.512 322.389,171.387 332.427 C 176.145 336.819,178.502 337.139,181.165 333.754 C 183.796 330.409,181.952 327.805,169.400 317.134 C 154.266 304.268,127.097 287.824,108.436 280.235 C 106.546 279.467,103.650 278.275,102.000 277.586 C 90.462 272.768,74.260 267.643,56.120 263.072 L 52.840 262.246 51.840 260.017 C 49.411 254.606,44.951 240.189,44.144 235.141 L 43.898 233.600 45.449 233.622 C 50.507 233.692,71.287 236.687,81.600 238.832 C 117.789 246.360,147.665 258.992,172.184 277.135 C 176.625 280.421,178.148 280.722,180.277 278.733 C 184.207 275.062,182.571 271.887,173.390 265.366 C 152.381 250.442,128.921 239.407,102.400 231.974 C 100.090 231.327,96.940 230.442,95.400 230.008 C 90.185 228.537,77.837 226.014,70.000 224.817 C 65.710 224.162,61.120 223.437,59.800 223.205 C 56.763 222.671,46.448 221.602,44.257 221.594 C 43.346 221.591,42.370 221.442,42.090 221.264 C 41.441 220.852,40.493 213.617,40.326 207.800 L 40.200 203.400 48.400 201.708 C 73.789 196.470,98.610 193.098,125.400 191.248 C 149.785 189.563,154.010 189.400,173.200 189.400 L 192.600 189.400 192.800 266.871 L 193.000 344.341 193.837 345.471 C 197.317 350.168,204.073 348.869,205.597 343.210 L 206.015 341.657 213.802 341.657 C 221.583 341.657,221.590 341.656,223.681 340.529 C 229.993 337.124,230.060 328.330,223.800 324.864 C 222.831 324.328,221.023 324.162,214.400 324.000 L 206.200 323.800 206.200 317.400 L 206.200 311.000 214.400 310.800 C 225.821 310.521,228.846 308.434,228.322 301.194 C 227.873 294.990,225.176 293.460,214.231 293.200 L 205.800 293.000 205.694 241.448 C 205.621 205.648,205.718 189.740,206.012 189.386 C 206.335 188.997,208.109 188.914,213.517 189.035 C 217.413 189.123,226.360 189.278,233.400 189.380 " stroke="none" fill="#061517" fill-rule="evenodd"></path><path id="path1" d="M178.505 0.287 C 179.114 0.379,180.014 0.377,180.505 0.282 C 180.997 0.187,180.500 0.111,179.400 0.114 C 178.300 0.117,177.897 0.195,178.505 0.287 M183.000 0.422 C 111.570 7.506,51.678 48.435,20.606 111.400 C -32.657 219.331,20.076 348.661,133.863 389.172 C 157.053 397.428,174.804 400.102,205.200 399.919 C 215.870 399.855,223.700 399.695,222.600 399.564 C 221.202 399.397,220.984 399.307,221.878 399.263 C 245.263 398.113,282.347 385.129,307.180 369.396 C 398.549 311.512,427.678 190.067,372.324 97.800 C 339.949 43.837,287.542 9.727,223.800 1.132 C 217.028 0.219,189.819 -0.255,183.000 0.422 M223.000 0.624 C 225.200 0.917,227.450 1.142,228.000 1.125 C 229.575 1.077,222.387 0.058,220.600 0.076 C 219.720 0.085,220.800 0.332,223.000 0.624 M175.105 0.683 C 175.602 0.779,176.322 0.775,176.705 0.675 C 177.087 0.575,176.680 0.496,175.800 0.501 C 174.920 0.505,174.607 0.587,175.105 0.683 M170.000 1.200 C 168.001 1.621,170.052 1.638,172.400 1.220 C 174.024 0.932,174.063 0.900,172.800 0.903 C 172.030 0.904,170.770 1.038,170.000 1.200 M231.800 1.820 C 233.340 2.112,234.960 2.340,235.400 2.328 C 235.840 2.315,235.030 2.064,233.600 1.771 C 232.170 1.477,230.550 1.249,230.000 1.264 C 229.450 1.278,230.260 1.528,231.800 1.820 M163.000 2.400 C 161.930 2.672,161.908 2.705,162.800 2.705 C 163.350 2.705,164.340 2.568,165.000 2.400 C 166.070 2.128,166.092 2.095,165.200 2.095 C 164.650 2.095,163.660 2.232,163.000 2.400 M159.400 3.069 C 155.175 3.998,145.588 6.437,144.800 6.784 L 143.800 7.223 144.800 7.001 C 145.350 6.880,148.680 6.078,152.200 5.220 C 155.720 4.361,159.320 3.484,160.200 3.271 C 161.746 2.896,161.021 2.712,159.400 3.069 M244.200 4.228 C 245.300 4.534,246.470 4.772,246.800 4.757 C 247.130 4.741,246.500 4.478,245.400 4.172 C 244.300 3.866,243.130 3.628,242.800 3.643 C 242.470 3.659,243.100 3.922,244.200 4.228 M252.800 6.413 C 255.770 7.268,258.371 7.917,258.581 7.857 C 259.031 7.726,248.676 4.786,247.919 4.830 C 247.633 4.846,249.830 5.559,252.800 6.413 M139.400 8.400 C 138.300 8.806,137.670 9.138,138.000 9.138 C 138.330 9.138,139.500 8.806,140.600 8.400 C 141.700 7.994,142.330 7.662,142.000 7.662 C 141.670 7.662,140.500 7.994,139.400 8.400 M262.368 9.228 C 263.560 9.651,264.605 9.928,264.690 9.844 C 264.876 9.657,261.233 8.388,260.629 8.429 C 260.393 8.445,261.176 8.805,262.368 9.228 M133.075 10.473 C 131.796 10.919,130.820 11.353,130.906 11.439 C 131.087 11.621,136.000 10.005,136.000 9.763 C 136.000 9.502,135.544 9.613,133.075 10.473 M268.000 11.133 C 268.330 11.336,269.050 11.624,269.600 11.771 C 270.295 11.957,270.417 11.925,270.000 11.667 C 269.670 11.464,268.950 11.176,268.400 11.029 C 267.705 10.843,267.583 10.875,268.000 11.133 M128.600 12.214 C 127.600 12.696,127.566 12.751,128.400 12.548 C 129.533 12.271,130.807 11.621,130.200 11.630 C 129.980 11.633,129.260 11.896,128.600 12.214 M270.833 12.161 C 271.175 12.490,278.145 15.188,278.287 15.046 C 278.369 14.965,276.806 14.246,274.815 13.449 C 271.434 12.096,270.429 11.771,270.833 12.161 M119.000 16.147 C 85.289 31.265,52.542 58.372,34.855 85.800 C 33.254 88.282,34.120 87.193,38.832 80.800 C 59.465 52.806,88.221 29.911,120.200 16.015 C 122.840 14.868,125.075 13.855,125.167 13.765 C 125.683 13.255,124.004 13.903,119.000 16.147 M281.554 16.606 C 283.179 17.386,284.579 17.955,284.664 17.869 C 284.750 17.783,283.691 17.219,282.310 16.615 C 278.594 14.989,278.177 14.984,281.554 16.606 M285.200 18.244 C 285.200 18.354,286.235 18.916,287.500 19.493 C 324.508 36.376,358.600 69.777,378.857 109.000 C 381.016 113.180,382.786 116.454,382.791 116.276 C 382.796 116.097,381.371 113.127,379.624 109.676 C 360.947 72.776,331.185 42.337,294.600 22.717 C 289.374 19.914,285.200 17.928,285.200 18.244 M208.882 27.195 C 218.113 27.871,231.047 29.888,238.737 31.851 C 293.750 45.897,337.884 83.937,359.123 135.615 C 374.825 173.821,375.040 219.411,359.714 260.600 C 357.721 265.954,357.726 265.944,353.952 273.912 C 339.731 303.935,317.889 328.098,288.313 346.524 C 245.704 373.070,193.777 379.560,148.000 364.063 C 110.799 351.468,81.869 329.915,58.293 297.230 C 51.228 287.435,41.720 268.412,37.086 254.800 C 29.204 231.650,26.119 205.152,28.540 181.400 C 29.350 173.446,29.573 172.038,31.455 163.000 C 33.260 154.327,35.595 146.281,38.595 138.400 C 64.779 69.612,137.706 21.987,208.882 27.195 M192.800 39.437 C 170.669 40.907,154.773 44.673,136.000 52.893 C 100.537 68.422,69.683 98.865,53.237 134.551 C 49.579 142.489,45.594 153.920,46.063 155.132 C 46.183 155.443,56.038 150.505,64.800 145.743 C 71.384 142.164,83.359 134.984,96.600 126.675 C 100.150 124.448,114.524 114.894,119.200 111.654 C 120.850 110.510,124.720 107.837,127.800 105.712 C 137.770 98.835,150.456 89.509,164.522 78.715 C 166.550 77.159,167.243 76.294,168.499 73.750 C 181.525 47.382,219.090 48.204,230.885 75.115 C 231.339 76.152,231.923 77.126,232.184 77.280 C 232.444 77.434,234.618 79.126,237.016 81.040 C 241.775 84.840,254.227 94.188,258.877 97.451 C 260.485 98.580,264.702 101.550,268.248 104.051 C 280.103 112.414,297.502 123.905,311.632 132.703 C 325.240 141.176,350.615 155.200,352.338 155.200 C 355.287 155.200,343.222 127.910,333.940 113.585 C 303.296 66.289,245.517 35.936,192.800 39.437 M194.179 69.761 C 180.158 74.153,175.753 91.149,186.073 101.039 C 201.408 115.735,225.364 98.864,216.400 79.679 C 212.781 71.934,202.250 67.233,194.179 69.761 M31.468 90.738 C 26.740 98.045,17.580 114.636,17.608 115.840 C 17.613 116.038,19.293 112.960,21.341 109.000 C 24.753 102.402,28.315 96.235,32.142 90.300 C 32.957 89.035,33.538 88.000,33.432 88.000 C 33.326 88.000,32.442 89.232,31.468 90.738 M164.489 92.623 L 163.600 93.245 163.600 134.974 C 163.600 167.904,163.705 176.776,164.100 177.051 C 164.375 177.243,167.210 177.310,170.400 177.200 L 176.200 177.000 176.302 145.134 L 176.405 113.268 175.013 111.534 C 169.867 105.121,166.400 97.635,166.400 92.936 C 166.400 91.849,165.746 91.742,164.489 92.623 M232.231 92.500 C 232.152 92.775,231.880 94.260,231.625 95.800 C 230.844 100.521,226.776 108.354,223.430 111.578 L 222.000 112.957 222.000 145.078 L 222.000 177.200 228.148 177.200 L 234.295 177.200 234.543 175.700 C 235.332 170.926,234.800 94.108,233.971 93.054 C 233.071 91.909,232.457 91.714,232.231 92.500 M149.066 103.348 C 145.363 106.027,142.160 108.529,141.948 108.908 C 141.555 109.609,141.606 177.779,142.000 178.094 C 142.110 178.182,145.395 178.076,149.300 177.859 L 156.400 177.464 156.425 172.432 C 156.439 169.664,156.537 151.875,156.643 132.900 C 156.801 104.809,156.740 98.407,156.318 98.438 C 156.033 98.459,152.770 100.668,149.066 103.348 M241.600 137.958 L 241.600 177.516 247.900 177.785 C 251.365 177.933,254.650 178.087,255.200 178.127 L 256.200 178.200 256.200 143.224 L 256.200 108.249 251.000 104.523 C 243.416 99.089,242.401 98.400,241.980 98.400 C 241.743 98.400,241.600 113.244,241.600 137.958 M263.451 113.883 C 262.936 114.398,263.213 177.914,263.732 178.334 C 264.119 178.648,273.085 179.600,275.657 179.600 C 276.374 179.600,276.400 178.594,276.400 150.835 L 276.400 122.071 270.500 118.168 C 267.255 116.022,264.403 114.118,264.163 113.936 C 263.923 113.755,263.602 113.731,263.451 113.883 M128.300 118.250 L 122.800 122.057 122.800 150.883 L 122.800 179.710 126.700 179.439 C 128.845 179.291,131.455 179.063,132.500 178.933 L 134.400 178.697 134.400 146.548 C 134.400 128.867,134.265 114.410,134.100 114.422 C 133.935 114.434,131.325 116.156,128.300 118.250 M15.679 120.084 C 13.401 125.301,11.541 130.074,11.717 130.250 C 11.799 130.332,12.555 128.644,13.399 126.499 C 14.242 124.355,15.535 121.267,16.271 119.639 C 17.008 118.010,17.541 116.608,17.456 116.523 C 17.371 116.437,16.571 118.040,15.679 120.084 M382.958 117.200 C 383.588 119.039,387.796 128.737,387.913 128.620 C 388.103 128.431,384.605 119.932,383.577 118.083 C 383.124 117.267,382.845 116.870,382.958 117.200 M183.200 147.400 L 183.200 177.200 184.339 177.200 C 184.965 177.200,187.125 177.083,189.139 176.940 L 192.800 176.680 192.794 149.240 C 192.791 134.148,192.656 121.603,192.494 121.362 C 192.332 121.121,190.850 120.522,189.200 120.030 C 187.550 119.539,185.605 118.791,184.877 118.368 C 184.150 117.946,183.475 117.600,183.377 117.600 C 183.280 117.600,183.200 131.010,183.200 147.400 M212.800 118.662 C 211.810 119.155,210.053 119.778,208.895 120.044 C 205.557 120.814,205.800 118.525,205.800 149.161 L 205.800 176.600 210.200 176.825 C 212.620 176.949,214.735 176.983,214.900 176.901 C 215.065 176.820,215.200 163.544,215.200 147.400 C 215.200 131.256,215.065 117.983,214.900 117.906 C 214.735 117.828,213.790 118.168,212.800 118.662 M110.504 130.521 L 105.629 133.800 105.714 157.400 L 105.800 181.000 108.800 180.852 C 110.450 180.770,112.610 180.588,113.600 180.447 L 115.400 180.190 115.600 154.057 C 115.710 139.683,115.705 127.770,115.590 127.583 C 115.474 127.396,113.185 128.718,110.504 130.521 M283.697 153.900 L 283.800 180.200 286.200 180.449 C 287.520 180.586,289.635 180.798,290.900 180.920 L 293.200 181.142 293.200 157.433 L 293.200 133.723 288.603 130.662 C 286.074 128.978,283.913 127.600,283.800 127.600 C 283.687 127.600,283.641 139.435,283.697 153.900 M388.229 130.000 C 388.376 130.550,388.664 131.270,388.867 131.600 C 389.125 132.017,389.157 131.895,388.971 131.200 C 388.824 130.650,388.536 129.930,388.333 129.600 C 388.075 129.183,388.043 129.305,388.229 130.000 M10.447 133.247 C 9.984 134.618,9.674 135.808,9.758 135.892 C 9.843 135.976,10.290 134.923,10.753 133.553 C 11.216 132.182,11.526 130.992,11.442 130.908 C 11.357 130.824,10.910 131.877,10.447 133.247 M389.832 134.500 C 390.599 136.921,391.545 139.354,391.571 138.978 C 391.611 138.400,389.973 133.600,389.736 133.600 C 389.632 133.600,389.675 134.005,389.832 134.500 M7.673 141.698 C 6.041 147.028,3.997 154.835,4.033 155.600 C 4.049 155.930,4.679 153.860,5.433 151.000 C 6.188 148.140,7.355 144.026,8.027 141.858 C 8.699 139.690,9.177 137.844,9.089 137.756 C 9.001 137.667,8.363 139.441,7.673 141.698 M93.171 141.617 C 91.097 142.946,88.999 144.381,88.509 144.806 L 87.619 145.578 87.709 164.289 L 87.800 183.000 90.400 182.874 C 91.830 182.805,94.080 182.527,95.400 182.257 L 97.800 181.767 97.878 160.483 C 97.940 143.538,97.853 139.200,97.449 139.200 C 97.171 139.200,95.246 140.288,93.171 141.617 M301.200 160.351 C 301.200 176.800,301.311 181.587,301.700 181.886 C 302.191 182.264,310.757 183.274,311.191 183.005 C 311.313 182.930,311.394 174.438,311.371 164.134 L 311.328 145.400 306.764 142.328 C 304.254 140.638,301.975 139.243,301.700 139.228 C 301.306 139.206,301.200 143.682,301.200 160.351 M392.140 141.400 C 393.408 145.647,395.395 153.488,396.376 158.119 C 397.038 161.243,397.758 164.610,397.977 165.600 L 398.374 167.400 398.163 165.400 C 397.702 161.029,392.961 141.597,392.175 140.858 C 392.024 140.716,392.008 140.960,392.140 141.400 M74.600 152.666 C 72.180 154.124,70.067 155.515,69.903 155.758 C 69.097 156.959,69.769 185.805,70.600 185.669 C 71.040 185.597,73.235 185.256,75.478 184.911 L 79.557 184.284 79.798 182.242 C 80.201 178.822,79.847 150.281,79.400 150.141 C 79.180 150.072,77.020 151.208,74.600 152.666 M319.296 167.076 L 319.400 184.151 323.668 184.833 C 326.016 185.207,328.119 185.626,328.341 185.763 C 329.414 186.427,330.076 157.146,329.018 155.794 C 328.544 155.188,320.047 150.000,319.529 150.000 C 319.343 150.000,319.238 157.684,319.296 167.076 M2.844 160.757 C 1.646 166.768,0.807 172.004,0.849 173.200 C 0.868 173.750,1.204 172.220,1.596 169.800 C 1.987 167.380,2.703 163.449,3.186 161.065 C 3.669 158.681,3.986 156.652,3.890 156.557 C 3.794 156.461,3.324 158.351,2.844 160.757 M57.996 169.131 C 56.343 169.939,52.152 171.837,48.681 173.348 C 40.903 176.735,40.437 177.573,40.407 188.233 C 40.398 191.372,39.937 191.245,46.502 189.918 C 49.636 189.284,54.360 188.366,57.000 187.877 L 61.800 186.989 61.800 177.428 C 61.800 166.535,62.075 167.136,57.996 169.131 M337.200 177.346 L 337.200 187.091 339.100 187.336 C 340.145 187.471,344.816 188.345,349.479 189.278 C 354.143 190.211,358.092 190.842,358.255 190.679 C 358.567 190.366,357.728 179.567,357.246 177.695 C 356.931 176.473,355.718 175.775,348.000 172.375 C 345.470 171.260,342.157 169.730,340.637 168.974 C 339.117 168.218,337.722 167.600,337.537 167.600 C 337.352 167.600,337.200 171.986,337.200 177.346 M398.677 169.800 C 398.805 171.120,399.151 173.820,399.445 175.800 L 399.979 179.400 399.761 176.400 C 399.640 174.750,399.295 172.050,398.992 170.400 C 398.477 167.587,398.457 167.550,398.677 169.800 M0.501 175.800 C 0.505 176.680,0.587 176.993,0.683 176.495 C 0.779 175.998,0.775 175.278,0.675 174.895 C 0.575 174.513,0.496 174.920,0.501 175.800 M0.114 179.400 C 0.117 180.500,0.195 180.903,0.287 180.295 C 0.379 179.686,0.377 178.786,0.282 178.295 C 0.187 177.803,0.111 178.300,0.114 179.400 M206.012 189.386 C 205.718 189.740,205.621 205.648,205.694 241.448 L 205.800 293.000 214.231 293.200 C 225.176 293.460,227.873 294.990,228.322 301.194 C 228.846 308.434,225.821 310.521,214.400 310.800 L 206.200 311.000 206.200 317.400 L 206.200 323.800 214.400 324.000 C 221.023 324.162,222.831 324.328,223.800 324.864 C 230.060 328.330,229.993 337.124,223.681 340.529 C 221.590 341.656,221.583 341.657,213.802 341.657 L 206.015 341.657 205.597 343.210 C 204.073 348.869,197.317 350.168,193.837 345.471 L 193.000 344.341 192.800 266.871 L 192.600 189.400 173.200 189.400 C 154.010 189.400,149.785 189.563,125.400 191.248 C 98.610 193.098,73.789 196.470,48.400 201.708 L 40.200 203.400 40.326 207.800 C 40.493 213.617,41.441 220.852,42.090 221.264 C 42.370 221.442,43.346 221.591,44.257 221.594 C 46.448 221.602,56.763 222.671,59.800 223.205 C 61.120 223.437,65.710 224.162,70.000 224.817 C 77.837 226.014,90.185 228.537,95.400 230.008 C 96.940 230.442,100.090 231.327,102.400 231.974 C 128.921 239.407,152.381 250.442,173.390 265.366 C 182.571 271.887,184.207 275.062,180.277 278.733 C 178.148 280.722,176.625 280.421,172.184 277.135 C 147.665 258.992,117.789 246.360,81.600 238.832 C 71.287 236.687,50.507 233.692,45.449 233.622 L 43.898 233.600 44.144 235.141 C 44.951 240.189,49.411 254.606,51.840 260.017 L 52.840 262.246 56.120 263.072 C 74.260 267.643,90.462 272.768,102.000 277.586 C 103.650 278.275,106.546 279.467,108.436 280.235 C 127.097 287.824,154.266 304.268,169.400 317.134 C 181.952 327.805,183.796 330.409,181.165 333.754 C 178.502 337.139,176.145 336.819,171.387 332.427 C 160.512 322.389,146.701 312.506,131.449 303.849 C 124.187 299.727,122.092 298.640,116.000 295.832 C 112.810 294.362,109.853 292.967,109.429 292.732 C 102.941 289.133,77.473 280.499,64.338 277.445 C 62.942 277.120,61.485 276.733,61.100 276.585 C 59.828 276.094,60.312 277.675,62.640 281.612 C 93.592 333.973,157.150 366.362,215.400 359.458 C 242.751 356.217,268.386 346.134,291.600 329.486 C 309.096 316.939,322.654 302.710,333.939 285.053 C 339.171 276.865,339.274 276.565,336.700 276.956 C 323.762 278.918,287.393 292.330,273.197 300.374 C 271.619 301.268,270.264 302.000,270.186 302.000 C 270.023 302.000,266.663 303.920,261.354 307.046 C 257.826 309.123,248.622 315.172,244.667 318.012 C 239.851 321.471,234.627 317.514,237.145 312.313 C 239.749 306.936,265.353 291.229,287.400 281.485 C 302.962 274.607,332.563 264.832,345.355 262.347 C 346.026 262.216,348.547 256.812,349.995 252.400 C 352.497 244.778,354.800 236.034,354.800 234.158 C 354.800 233.423,350.268 233.537,344.400 234.418 C 342.970 234.633,337.840 235.348,333.000 236.008 C 293.849 241.342,257.473 254.886,229.435 274.570 C 222.652 279.331,221.725 279.816,219.803 279.605 C 216.244 279.213,214.881 273.811,217.604 270.888 C 220.386 267.902,233.659 258.805,242.349 253.928 C 244.631 252.648,246.570 251.600,246.657 251.600 C 246.744 251.600,247.487 251.178,248.308 250.663 C 253.973 247.104,274.637 238.473,286.000 234.920 C 295.076 232.082,305.283 229.297,311.400 227.989 C 314.480 227.331,317.231 226.707,317.514 226.603 C 317.797 226.499,320.137 226.056,322.714 225.619 C 326.933 224.902,330.503 224.366,342.800 222.599 C 344.890 222.299,348.927 221.859,351.771 221.622 C 354.615 221.385,357.001 221.133,357.072 221.061 C 357.376 220.758,358.033 214.205,358.267 209.151 L 358.520 203.702 357.160 203.257 C 355.010 202.554,336.472 198.965,329.131 197.830 C 325.464 197.263,322.224 196.716,321.931 196.614 C 319.792 195.871,286.521 192.230,270.600 190.998 C 261.164 190.268,244.438 189.540,233.400 189.380 C 226.360 189.278,217.413 189.123,213.517 189.035 C 208.109 188.914,206.335 188.997,206.012 189.386 M0.076 220.600 C 0.058 222.387,1.077 229.575,1.125 228.000 C 1.142 227.450,0.917 225.200,0.624 223.000 C 0.332 220.800,0.085 219.720,0.076 220.600 M399.070 226.600 C 398.669 229.680,398.241 232.830,398.119 233.600 C 397.998 234.370,398.002 234.904,398.130 234.786 C 398.475 234.467,400.082 222.990,399.931 221.922 C 399.859 221.415,399.472 223.520,399.070 226.600 M1.264 230.000 C 1.249 230.550,1.477 232.170,1.771 233.600 C 2.064 235.030,2.315 235.840,2.328 235.400 C 2.340 234.960,2.112 233.340,1.820 231.800 C 1.528 230.260,1.278 229.450,1.264 230.000 M396.835 239.867 C 396.316 242.470,395.802 245.050,395.691 245.600 C 395.581 246.150,395.590 246.510,395.712 246.400 C 396.045 246.099,398.092 236.076,397.924 235.571 C 397.843 235.330,397.353 237.263,396.835 239.867 M2.479 237.200 C 2.476 238.322,3.488 242.538,3.535 241.600 C 3.552 241.270,3.321 239.920,3.024 238.600 C 2.726 237.280,2.481 236.650,2.479 237.200 M3.680 243.000 C 3.680 243.440,3.824 244.250,4.000 244.800 C 4.254 245.592,4.320 245.633,4.320 245.000 C 4.320 244.560,4.176 243.750,4.000 243.200 C 3.746 242.408,3.680 242.367,3.680 243.000 M4.467 246.600 C 4.461 247.452,5.492 250.877,5.550 250.200 C 5.569 249.980,5.334 248.900,5.028 247.800 C 4.722 246.700,4.469 246.160,4.467 246.600 M395.050 248.050 C 394.909 248.753,394.869 249.402,394.959 249.492 C 395.050 249.583,395.248 249.091,395.400 248.400 C 395.552 247.709,395.593 247.059,395.491 246.958 C 395.389 246.856,395.191 247.347,395.050 248.050 M393.046 255.317 C 391.176 261.814,390.948 262.841,392.005 260.000 C 393.011 257.299,394.919 250.386,394.716 250.182 C 394.634 250.101,393.883 252.411,393.046 255.317 M5.850 252.000 C 5.990 252.770,6.261 253.760,6.454 254.200 C 6.694 254.749,6.724 254.561,6.550 253.600 C 6.410 252.830,6.139 251.840,5.946 251.400 C 5.706 250.851,5.676 251.039,5.850 252.000 M6.861 255.600 C 6.861 255.930,7.103 256.830,7.400 257.600 C 7.697 258.370,7.939 258.730,7.939 258.400 C 7.939 258.070,7.697 257.170,7.400 256.400 C 7.103 255.630,6.861 255.270,6.861 255.600 M8.430 260.599 C 8.386 261.185,10.456 267.278,10.637 267.096 C 10.723 267.011,10.268 265.424,9.626 263.571 C 8.985 261.717,8.447 260.379,8.430 260.599 M389.647 266.047 C 389.184 267.418,388.874 268.608,388.958 268.692 C 389.043 268.776,389.490 267.723,389.953 266.353 C 390.416 264.982,390.726 263.792,390.642 263.708 C 390.557 263.624,390.110 264.677,389.647 266.047 M11.054 268.400 C 11.189 268.950,11.545 269.940,11.845 270.600 C 12.284 271.564,12.343 271.603,12.146 270.800 C 12.011 270.250,11.655 269.260,11.355 268.600 C 10.916 267.636,10.857 267.597,11.054 268.400 M388.044 270.444 C 387.798 271.151,387.666 271.800,387.752 271.885 C 387.838 271.971,388.109 271.462,388.356 270.756 C 388.602 270.049,388.734 269.400,388.648 269.315 C 388.562 269.229,388.291 269.738,388.044 270.444 M14.026 276.065 C 14.012 276.210,14.609 277.740,15.354 279.465 C 31.829 317.610,59.768 349.729,95.741 371.880 C 100.999 375.118,118.792 384.400,119.741 384.400 C 119.972 384.400,115.940 382.278,110.781 379.685 C 69.264 358.817,36.432 325.009,17.781 283.918 C 14.393 276.454,14.056 275.750,14.026 276.065 M384.667 278.867 C 384.081 280.224,383.666 281.399,383.744 281.478 C 383.823 281.556,384.368 280.511,384.956 279.156 C 385.543 277.800,385.959 276.625,385.878 276.545 C 385.798 276.464,385.252 277.509,384.667 278.867 M381.881 285.021 C 381.066 286.667,380.409 288.145,380.420 288.307 C 380.431 288.468,381.162 287.186,382.046 285.459 C 382.929 283.731,383.586 282.253,383.506 282.173 C 383.427 282.093,382.695 283.375,381.881 285.021 M378.221 292.518 C 354.220 337.851,314.410 372.666,267.891 389.002 C 265.521 389.834,263.652 390.585,263.737 390.670 C 263.992 390.925,272.397 387.820,278.702 385.143 C 317.000 368.882,350.889 339.425,372.288 303.800 C 375.258 298.855,380.501 289.168,380.311 288.977 C 380.233 288.900,379.293 290.493,378.221 292.518 M121.200 385.000 C 121.750 385.314,122.380 385.572,122.600 385.572 C 122.820 385.572,122.550 385.314,122.000 385.000 C 121.450 384.686,120.820 384.428,120.600 384.428 C 120.380 384.428,120.650 384.686,121.200 385.000 M129.600 388.333 C 129.930 388.536,130.650 388.824,131.200 388.971 C 131.895 389.157,132.017 389.125,131.600 388.867 C 131.270 388.664,130.550 388.376,130.000 388.229 C 129.305 388.043,129.183 388.075,129.600 388.333 M133.638 389.755 C 133.947 390.086,140.821 392.409,141.375 392.370 C 141.609 392.353,140.301 391.821,138.470 391.187 C 134.066 389.663,133.355 389.452,133.638 389.755 M258.476 392.120 C 256.207 392.815,254.508 393.436,254.700 393.500 C 255.068 393.623,262.811 391.322,263.141 390.992 C 263.495 390.638,262.625 390.848,258.476 392.120 M142.800 392.816 C 144.154 393.404,154.049 396.004,154.800 395.970 C 155.325 395.946,145.473 393.178,142.800 392.598 L 141.800 392.382 142.800 392.816 M249.800 394.637 C 248.040 395.168,247.230 395.510,248.000 395.396 C 249.663 395.151,254.465 393.673,253.600 393.673 C 253.270 393.673,251.560 394.107,249.800 394.637 M242.200 396.400 C 240.660 396.791,239.760 397.116,240.200 397.123 C 240.640 397.129,242.260 396.810,243.800 396.413 C 245.340 396.017,246.240 395.691,245.800 395.691 C 245.360 395.690,243.740 396.009,242.200 396.400 M156.400 396.400 C 156.950 396.576,157.760 396.720,158.200 396.720 C 158.833 396.720,158.792 396.654,158.000 396.400 C 157.450 396.224,156.640 396.080,156.200 396.080 C 155.567 396.080,155.608 396.146,156.400 396.400 M161.165 397.416 C 162.356 397.706,164.246 398.037,165.365 398.152 C 166.622 398.281,166.024 398.072,163.800 397.604 C 159.721 396.747,157.878 396.615,161.165 397.416 M233.800 398.010 C 231.820 398.398,230.650 398.727,231.200 398.742 C 231.750 398.758,233.820 398.438,235.800 398.032 C 237.780 397.626,238.950 397.296,238.400 397.300 C 237.850 397.303,235.780 397.623,233.800 398.010 M170.400 398.992 C 172.050 399.295,174.750 399.640,176.400 399.761 L 179.400 399.979 175.800 399.445 C 169.954 398.577,166.601 398.296,170.400 398.992 M226.200 399.200 C 224.839 399.444,224.779 399.492,225.800 399.520 C 226.460 399.539,227.720 399.405,228.600 399.223 C 230.693 398.790,228.602 398.770,226.200 399.200 " stroke="none" fill="#fbfbfb" fill-rule="evenodd"></path></g></svg>